<svg width="284" height="237" viewBox="0 0 284 237" fill="none" xmlns="http://www.w3.org/2000/svg">
<path d="M90.7464 92.9264C90.7057 92.5142 90.3386 92.213 89.9264 92.2536L83.209 92.9159C82.7968 92.9565 82.4955 93.3237 82.5362 93.7359C82.5768 94.1481 82.9439 94.4493 83.3562 94.4087L89.3272 93.82L89.9159 99.791C89.9565 100.203 90.3237 100.504 90.7359 100.464C91.1481 100.423 91.4493 100.056 91.4087 99.6438L90.7464 92.9264ZM57.4202 131.524C57.1575 131.844 57.204 132.317 57.5243 132.58C57.8445 132.843 58.3171 132.796 58.5798 132.476L57.4202 131.524ZM89.4202 92.5243L57.4202 131.524L58.5798 132.476L90.5798 93.4757L89.4202 92.5243Z" fill="#27272A"/>
<path d="M136.53 36.4697C136.237 36.1768 135.763 36.1768 135.47 36.4697L130.697 41.2426C130.404 41.5355 130.404 42.0104 130.697 42.3033C130.99 42.5962 131.464 42.5962 131.757 42.3033L136 38.0607L140.243 42.3033C140.536 42.5962 141.01 42.5962 141.303 42.3033C141.596 42.0104 141.596 41.5355 141.303 41.2426L136.53 36.4697ZM135.25 64C135.25 64.4142 135.586 64.75 136 64.75C136.414 64.75 136.75 64.4142 136.75 64L135.25 64ZM135.25 37L135.25 64L136.75 64L136.75 37L135.25 37Z" fill="#27272A"/>
<path d="M58.0499 172.252C57.6366 172.224 57.2792 172.537 57.2517 172.95L56.8027 179.685C56.7751 180.098 57.0878 180.456 57.5011 180.483C57.9144 180.511 58.2718 180.198 58.2993 179.785L58.6984 173.798L64.6852 174.197C65.0985 174.225 65.4558 173.912 65.4834 173.499C65.5109 173.086 65.1982 172.728 64.7849 172.701L58.0499 172.252ZM92.4356 213.494C92.7083 213.806 93.1822 213.837 93.4939 213.564C93.8056 213.292 93.8372 212.818 93.5644 212.506L92.4356 213.494ZM57.4356 173.494L92.4356 213.494L93.5644 212.506L58.5644 172.506L57.4356 173.494Z" fill="#27272A"/>
<path d="M223.749 173.036C223.769 172.622 223.449 172.271 223.036 172.251L216.293 171.93C215.88 171.91 215.528 172.23 215.508 172.643C215.489 173.057 215.808 173.408 216.222 173.428L222.215 173.713L221.93 179.707C221.91 180.12 222.23 180.472 222.643 180.492C223.057 180.511 223.408 180.192 223.428 179.778L223.749 173.036ZM178.495 212.445C178.189 212.724 178.166 213.198 178.445 213.505C178.724 213.811 179.198 213.834 179.505 213.555L178.495 212.445ZM222.495 172.445L178.495 212.445L179.505 213.555L223.505 173.555L222.495 172.445Z" fill="#27272A"/>
<path d="M181.981 92.2502C181.567 92.2606 181.24 92.6047 181.25 93.0187L181.419 99.7666C181.429 100.181 181.773 100.508 182.187 100.498C182.602 100.487 182.929 100.143 182.918 99.7291L182.769 93.731L188.767 93.5811C189.181 93.5707 189.508 93.2266 189.498 92.8126C189.487 92.3985 189.143 92.0712 188.729 92.0815L181.981 92.2502ZM222.483 132.543C222.783 132.829 223.258 132.817 223.543 132.517C223.829 132.217 223.817 131.742 223.517 131.457L222.483 132.543ZM181.483 93.5434L222.483 132.543L223.517 131.457L182.517 92.4566L181.483 93.5434Z" fill="#27272A"/>
<rect x="91.5" y="0.5" width="89" height="32" rx="7.5" fill="#F4F4F5"/>
<path d="M107.494 22H103.885V11.8182H107.524C108.548 11.8182 109.43 12.022 110.169 12.4297C110.908 12.834 111.477 13.4157 111.874 14.1747C112.275 14.9337 112.476 15.8419 112.476 16.8991C112.476 17.9598 112.275 18.8712 111.874 19.6335C111.477 20.3958 110.905 20.9808 110.159 21.3885C109.417 21.7962 108.528 22 107.494 22ZM106.038 20.1555H107.405C108.041 20.1555 108.576 20.0429 109.011 19.8175C109.448 19.5888 109.776 19.2358 109.995 18.7585C110.217 18.2779 110.328 17.6581 110.328 16.8991C110.328 16.1468 110.217 15.532 109.995 15.0547C109.776 14.5774 109.45 14.2261 109.016 14.0007C108.581 13.7753 108.046 13.6626 107.41 13.6626H106.038V20.1555ZM116.208 22.1442C115.721 22.1442 115.287 22.0597 114.906 21.8906C114.525 21.7183 114.223 21.4647 114.001 21.13C113.782 20.7919 113.673 20.371 113.673 19.8672C113.673 19.4429 113.751 19.0866 113.906 18.7983C114.062 18.5099 114.274 18.2779 114.543 18.1023C114.811 17.9266 115.116 17.794 115.458 17.7045C115.802 17.6151 116.164 17.5521 116.541 17.5156C116.985 17.4692 117.343 17.4261 117.615 17.3864C117.887 17.3433 118.084 17.2803 118.207 17.1974C118.329 17.1146 118.391 16.992 118.391 16.8295V16.7997C118.391 16.4848 118.291 16.2412 118.093 16.0689C117.897 15.8965 117.619 15.8104 117.257 15.8104C116.876 15.8104 116.573 15.8949 116.347 16.0639C116.122 16.2296 115.973 16.4384 115.9 16.6903L113.941 16.5312C114.041 16.0672 114.236 15.6662 114.528 15.3281C114.82 14.9867 115.196 14.7249 115.656 14.5426C116.12 14.357 116.657 14.2642 117.267 14.2642C117.691 14.2642 118.097 14.3139 118.485 14.4134C118.876 14.5128 119.223 14.6669 119.524 14.8757C119.829 15.0845 120.07 15.353 120.245 15.6811C120.421 16.0059 120.509 16.3954 120.509 16.8494V22H118.5V20.9411H118.441C118.318 21.1797 118.154 21.3902 117.948 21.5724C117.743 21.7514 117.496 21.8923 117.208 21.995C116.919 22.0945 116.586 22.1442 116.208 22.1442ZM116.815 20.6825C117.126 20.6825 117.401 20.6212 117.64 20.4986C117.879 20.3726 118.066 20.2036 118.202 19.9915C118.338 19.7794 118.406 19.5391 118.406 19.2706V18.4602C118.339 18.5033 118.248 18.5431 118.132 18.5795C118.02 18.6127 117.892 18.6442 117.749 18.674C117.607 18.7005 117.464 18.7254 117.322 18.7486C117.179 18.7685 117.05 18.7867 116.934 18.8033C116.686 18.8397 116.468 18.8977 116.283 18.9773C116.097 19.0568 115.953 19.1645 115.85 19.3004C115.748 19.433 115.696 19.5987 115.696 19.7976C115.696 20.0859 115.801 20.3063 116.009 20.4588C116.222 20.608 116.49 20.6825 116.815 20.6825ZM126.214 14.3636V15.9545H121.615V14.3636H126.214ZM122.659 12.5341H124.777V19.6534C124.777 19.849 124.807 20.0014 124.866 20.1108C124.926 20.2169 125.009 20.2914 125.115 20.3345C125.224 20.3776 125.35 20.3991 125.493 20.3991C125.592 20.3991 125.692 20.3909 125.791 20.3743C125.89 20.3544 125.967 20.3395 126.02 20.3295L126.353 21.9055C126.247 21.9387 126.098 21.9768 125.905 22.0199C125.713 22.0663 125.479 22.0945 125.204 22.1044C124.694 22.1243 124.247 22.0563 123.862 21.9006C123.481 21.7448 123.184 21.5028 122.972 21.1747C122.76 20.8466 122.656 20.4323 122.659 19.9318V12.5341ZM129.771 22.1442C129.284 22.1442 128.849 22.0597 128.468 21.8906C128.087 21.7183 127.785 21.4647 127.563 21.13C127.345 20.7919 127.235 20.371 127.235 19.8672C127.235 19.4429 127.313 19.0866 127.469 18.7983C127.625 18.5099 127.837 18.2779 128.105 18.1023C128.374 17.9266 128.679 17.794 129.02 17.7045C129.365 17.6151 129.726 17.5521 130.104 17.5156C130.548 17.4692 130.906 17.4261 131.178 17.3864C131.45 17.3433 131.647 17.2803 131.769 17.1974C131.892 17.1146 131.953 16.992 131.953 16.8295V16.7997C131.953 16.4848 131.854 16.2412 131.655 16.0689C131.459 15.8965 131.181 15.8104 130.82 15.8104C130.439 15.8104 130.135 15.8949 129.91 16.0639C129.685 16.2296 129.535 16.4384 129.463 16.6903L127.504 16.5312C127.603 16.0672 127.799 15.6662 128.09 15.3281C128.382 14.9867 128.758 14.7249 129.219 14.5426C129.683 14.357 130.22 14.2642 130.83 14.2642C131.254 14.2642 131.66 14.3139 132.048 14.4134C132.439 14.5128 132.785 14.6669 133.087 14.8757C133.392 15.0845 133.632 15.353 133.808 15.6811C133.983 16.0059 134.071 16.3954 134.071 16.8494V22H132.063V20.9411H132.003C131.88 21.1797 131.716 21.3902 131.511 21.5724C131.305 21.7514 131.058 21.8923 130.77 21.995C130.482 22.0945 130.149 22.1442 129.771 22.1442ZM130.377 20.6825C130.689 20.6825 130.964 20.6212 131.203 20.4986C131.441 20.3726 131.628 20.2036 131.764 19.9915C131.9 19.7794 131.968 19.5391 131.968 19.2706V18.4602C131.902 18.5033 131.811 18.5431 131.695 18.5795C131.582 18.6127 131.454 18.6442 131.312 18.674C131.169 18.7005 131.027 18.7254 130.884 18.7486C130.742 18.7685 130.613 18.7867 130.497 18.8033C130.248 18.8397 130.031 18.8977 129.845 18.9773C129.66 19.0568 129.516 19.1645 129.413 19.3004C129.31 19.433 129.259 19.5987 129.259 19.7976C129.259 20.0859 129.363 20.3063 129.572 20.4588C129.784 20.608 130.052 20.6825 130.377 20.6825ZM135.754 22V11.8182H137.872V15.6463H137.937C138.029 15.4408 138.164 15.232 138.339 15.0199C138.518 14.8045 138.75 14.6255 139.035 14.483C139.324 14.3371 139.682 14.2642 140.109 14.2642C140.666 14.2642 141.18 14.41 141.65 14.7017C142.121 14.9901 142.497 15.4259 142.779 16.0092C143.061 16.5893 143.202 17.3168 143.202 18.1918C143.202 19.0436 143.064 19.7628 142.789 20.3494C142.517 20.9328 142.146 21.3752 141.675 21.6768C141.208 21.9751 140.684 22.1243 140.104 22.1243C139.693 22.1243 139.344 22.0563 139.055 21.9205C138.77 21.7846 138.537 21.6139 138.354 21.4084C138.172 21.1996 138.033 20.9891 137.937 20.777H137.842V22H135.754ZM137.827 18.1818C137.827 18.6359 137.89 19.032 138.016 19.37C138.142 19.7081 138.324 19.9716 138.563 20.1605C138.802 20.3461 139.092 20.4389 139.433 20.4389C139.778 20.4389 140.069 20.3445 140.308 20.1555C140.547 19.9633 140.727 19.6982 140.85 19.3601C140.976 19.0187 141.039 18.6259 141.039 18.1818C141.039 17.741 140.978 17.3532 140.855 17.0185C140.732 16.6837 140.552 16.4219 140.313 16.233C140.074 16.044 139.781 15.9496 139.433 15.9496C139.088 15.9496 138.797 16.0407 138.558 16.223C138.323 16.4053 138.142 16.6638 138.016 16.9986C137.89 17.3333 137.827 17.7277 137.827 18.1818ZM146.792 22.1442C146.305 22.1442 145.871 22.0597 145.49 21.8906C145.109 21.7183 144.807 21.4647 144.585 21.13C144.366 20.7919 144.257 20.371 144.257 19.8672C144.257 19.4429 144.335 19.0866 144.49 18.7983C144.646 18.5099 144.858 18.2779 145.127 18.1023C145.395 17.9266 145.7 17.794 146.042 17.7045C146.386 17.6151 146.748 17.5521 147.125 17.5156C147.569 17.4692 147.927 17.4261 148.199 17.3864C148.471 17.3433 148.668 17.2803 148.791 17.1974C148.913 17.1146 148.975 16.992 148.975 16.8295V16.7997C148.975 16.4848 148.875 16.2412 148.676 16.0689C148.481 15.8965 148.203 15.8104 147.841 15.8104C147.46 15.8104 147.157 15.8949 146.931 16.0639C146.706 16.2296 146.557 16.4384 146.484 16.6903L144.525 16.5312C144.625 16.0672 144.82 15.6662 145.112 15.3281C145.404 14.9867 145.78 14.7249 146.24 14.5426C146.704 14.357 147.241 14.2642 147.851 14.2642C148.275 14.2642 148.681 14.3139 149.069 14.4134C149.46 14.5128 149.807 14.6669 150.108 14.8757C150.413 15.0845 150.654 15.353 150.829 15.6811C151.005 16.0059 151.093 16.3954 151.093 16.8494V22H149.084V20.9411H149.025C148.902 21.1797 148.738 21.3902 148.532 21.5724C148.327 21.7514 148.08 21.8923 147.792 21.995C147.503 22.0945 147.17 22.1442 146.792 22.1442ZM147.399 20.6825C147.71 20.6825 147.985 20.6212 148.224 20.4986C148.463 20.3726 148.65 20.2036 148.786 19.9915C148.922 19.7794 148.99 19.5391 148.99 19.2706V18.4602C148.923 18.5033 148.832 18.5431 148.716 18.5795C148.604 18.6127 148.476 18.6442 148.333 18.674C148.191 18.7005 148.048 18.7254 147.906 18.7486C147.763 18.7685 147.634 18.7867 147.518 18.8033C147.27 18.8397 147.052 18.8977 146.867 18.9773C146.681 19.0568 146.537 19.1645 146.434 19.3004C146.332 19.433 146.28 19.5987 146.28 19.7976C146.28 20.0859 146.385 20.3063 146.593 20.4588C146.806 20.608 147.074 20.6825 147.399 20.6825ZM159.089 16.5412L157.151 16.6605C157.117 16.4948 157.046 16.3456 156.937 16.2131C156.827 16.0772 156.683 15.9695 156.504 15.8899C156.329 15.8071 156.118 15.7656 155.873 15.7656C155.545 15.7656 155.268 15.8352 155.043 15.9744C154.817 16.1103 154.705 16.2926 154.705 16.5213C154.705 16.7036 154.777 16.8577 154.923 16.9837C155.069 17.1096 155.319 17.2107 155.674 17.2869L157.056 17.5653C157.799 17.7178 158.352 17.9631 158.717 18.3011C159.081 18.6392 159.263 19.0833 159.263 19.6335C159.263 20.134 159.116 20.5732 158.821 20.951C158.529 21.3288 158.128 21.6238 157.618 21.8359C157.111 22.0447 156.526 22.1491 155.863 22.1491C154.852 22.1491 154.047 21.9387 153.447 21.5178C152.85 21.0935 152.5 20.5168 152.398 19.7876L154.481 19.6783C154.544 19.9865 154.696 20.2218 154.938 20.3842C155.18 20.5433 155.49 20.6229 155.868 20.6229C156.239 20.6229 156.537 20.5516 156.763 20.4091C156.991 20.2633 157.107 20.076 157.111 19.8473C157.107 19.6551 157.026 19.4976 156.867 19.375C156.708 19.2491 156.463 19.1529 156.131 19.0866L154.809 18.8232C154.063 18.674 153.508 18.4155 153.143 18.0476C152.782 17.6797 152.602 17.2107 152.602 16.6406C152.602 16.1501 152.734 15.7275 152.999 15.3729C153.268 15.0182 153.644 14.7448 154.128 14.5526C154.615 14.3603 155.185 14.2642 155.838 14.2642C156.803 14.2642 157.562 14.468 158.115 14.8757C158.672 15.2834 158.997 15.8385 159.089 16.5412ZM164.077 22.1491C163.292 22.1491 162.616 21.9901 162.049 21.6719C161.485 21.3504 161.051 20.8963 160.746 20.3097C160.441 19.7197 160.289 19.022 160.289 18.2166C160.289 17.4311 160.441 16.7417 160.746 16.1484C161.051 15.5552 161.48 15.0928 162.034 14.7614C162.591 14.4299 163.244 14.2642 163.993 14.2642C164.497 14.2642 164.965 14.3454 165.4 14.5078C165.837 14.6669 166.218 14.9072 166.543 15.2287C166.871 15.5502 167.126 15.9545 167.309 16.4418C167.491 16.9257 167.582 17.4924 167.582 18.142V18.7237H161.134V17.4112H165.589C165.589 17.1063 165.522 16.8362 165.39 16.6009C165.257 16.3655 165.073 16.1816 164.838 16.049C164.606 15.9131 164.336 15.8452 164.028 15.8452C163.706 15.8452 163.421 15.9197 163.172 16.0689C162.927 16.2147 162.735 16.4119 162.596 16.6605C162.456 16.9058 162.385 17.1792 162.382 17.4808V18.7287C162.382 19.1065 162.452 19.433 162.591 19.7081C162.733 19.9832 162.934 20.1953 163.192 20.3445C163.451 20.4936 163.757 20.5682 164.112 20.5682C164.347 20.5682 164.563 20.535 164.758 20.4688C164.954 20.4025 165.121 20.303 165.26 20.1705C165.4 20.0379 165.506 19.8755 165.579 19.6832L167.537 19.8125C167.438 20.2831 167.234 20.6941 166.926 21.0455C166.621 21.3935 166.227 21.6652 165.743 21.8608C165.262 22.053 164.707 22.1491 164.077 22.1491Z" fill="#27272A"/>
<rect x="91.5" y="0.5" width="89" height="32" rx="7.5" stroke="#D4D4D8"/>
<rect x="97.5" y="204.5" width="77" height="32" rx="7.5" fill="#F4F4F5"/>
<path d="M109.885 226V215.818H113.902C114.671 215.818 115.327 215.956 115.871 216.231C116.418 216.503 116.834 216.889 117.119 217.389C117.407 217.886 117.551 218.471 117.551 219.144C117.551 219.82 117.405 220.402 117.114 220.889C116.822 221.373 116.399 221.744 115.846 222.003C115.296 222.261 114.629 222.391 113.847 222.391H111.158V220.661H113.499C113.91 220.661 114.252 220.604 114.523 220.491C114.795 220.379 114.997 220.21 115.13 219.984C115.266 219.759 115.334 219.479 115.334 219.144C115.334 218.806 115.266 218.521 115.13 218.289C114.997 218.057 114.794 217.881 114.518 217.762C114.247 217.639 113.904 217.578 113.489 217.578H112.038V226H109.885ZM115.384 221.366L117.914 226H115.538L113.062 221.366H115.384ZM122.36 226.149C121.588 226.149 120.92 225.985 120.356 225.657C119.796 225.326 119.364 224.865 119.059 224.275C118.754 223.682 118.601 222.994 118.601 222.212C118.601 221.423 118.754 220.733 119.059 220.143C119.364 219.55 119.796 219.089 120.356 218.761C120.92 218.43 121.588 218.264 122.36 218.264C123.132 218.264 123.798 218.43 124.358 218.761C124.922 219.089 125.356 219.55 125.661 220.143C125.966 220.733 126.118 221.423 126.118 222.212C126.118 222.994 125.966 223.682 125.661 224.275C125.356 224.865 124.922 225.326 124.358 225.657C123.798 225.985 123.132 226.149 122.36 226.149ZM122.37 224.509C122.721 224.509 123.015 224.409 123.25 224.21C123.485 224.008 123.662 223.733 123.782 223.385C123.904 223.037 123.966 222.641 123.966 222.197C123.966 221.753 123.904 221.357 123.782 221.009C123.662 220.661 123.485 220.385 123.25 220.183C123.015 219.981 122.721 219.88 122.37 219.88C122.015 219.88 121.717 219.981 121.475 220.183C121.236 220.385 121.056 220.661 120.933 221.009C120.814 221.357 120.754 221.753 120.754 222.197C120.754 222.641 120.814 223.037 120.933 223.385C121.056 223.733 121.236 224.008 121.475 224.21C121.717 224.409 122.015 224.509 122.37 224.509ZM132.393 222.749V218.364H134.51V226H132.477V224.613H132.398C132.225 225.06 131.939 225.42 131.537 225.692C131.14 225.964 130.654 226.099 130.081 226.099C129.57 226.099 129.121 225.983 128.733 225.751C128.346 225.519 128.042 225.19 127.824 224.762C127.608 224.335 127.499 223.822 127.496 223.226V218.364H129.613V222.848C129.617 223.299 129.738 223.655 129.976 223.917C130.215 224.179 130.535 224.31 130.936 224.31C131.191 224.31 131.43 224.252 131.652 224.136C131.874 224.016 132.053 223.841 132.189 223.609C132.328 223.377 132.396 223.09 132.393 222.749ZM140.266 218.364V219.955H135.668V218.364H140.266ZM136.712 216.534H138.83V223.653C138.83 223.849 138.859 224.001 138.919 224.111C138.979 224.217 139.062 224.291 139.168 224.335C139.277 224.378 139.403 224.399 139.545 224.399C139.645 224.399 139.744 224.391 139.844 224.374C139.943 224.354 140.019 224.339 140.072 224.33L140.406 225.906C140.299 225.939 140.15 225.977 139.958 226.02C139.766 226.066 139.532 226.094 139.257 226.104C138.747 226.124 138.299 226.056 137.915 225.901C137.534 225.745 137.237 225.503 137.025 225.175C136.813 224.847 136.708 224.432 136.712 223.932V216.534ZM145.044 226.149C144.259 226.149 143.582 225.99 143.016 225.672C142.452 225.35 142.018 224.896 141.713 224.31C141.408 223.72 141.256 223.022 141.256 222.217C141.256 221.431 141.408 220.742 141.713 220.148C142.018 219.555 142.447 219.093 143.001 218.761C143.558 218.43 144.21 218.264 144.96 218.264C145.463 218.264 145.932 218.345 146.366 218.508C146.804 218.667 147.185 218.907 147.51 219.229C147.838 219.55 148.093 219.955 148.276 220.442C148.458 220.926 148.549 221.492 148.549 222.142V222.724H142.101V221.411H146.555C146.555 221.106 146.489 220.836 146.357 220.601C146.224 220.366 146.04 220.182 145.805 220.049C145.573 219.913 145.303 219.845 144.994 219.845C144.673 219.845 144.388 219.92 144.139 220.069C143.894 220.215 143.702 220.412 143.562 220.661C143.423 220.906 143.352 221.179 143.349 221.481V222.729C143.349 223.107 143.418 223.433 143.558 223.708C143.7 223.983 143.901 224.195 144.159 224.344C144.418 224.494 144.724 224.568 145.079 224.568C145.314 224.568 145.53 224.535 145.725 224.469C145.921 224.402 146.088 224.303 146.227 224.17C146.366 224.038 146.473 223.875 146.545 223.683L148.504 223.812C148.405 224.283 148.201 224.694 147.893 225.045C147.588 225.393 147.193 225.665 146.71 225.861C146.229 226.053 145.674 226.149 145.044 226.149ZM149.931 226V218.364H151.984V219.696H152.064C152.203 219.222 152.437 218.864 152.765 218.622C153.093 218.377 153.471 218.254 153.898 218.254C154.004 218.254 154.119 218.261 154.241 218.274C154.364 218.287 154.472 218.306 154.565 218.329V220.208C154.465 220.178 154.328 220.152 154.152 220.129C153.976 220.105 153.816 220.094 153.67 220.094C153.358 220.094 153.08 220.162 152.835 220.298C152.593 220.43 152.4 220.616 152.258 220.854C152.119 221.093 152.049 221.368 152.049 221.68V226H149.931ZM162.013 220.541L160.074 220.661C160.041 220.495 159.97 220.346 159.861 220.213C159.751 220.077 159.607 219.969 159.428 219.89C159.252 219.807 159.042 219.766 158.797 219.766C158.469 219.766 158.192 219.835 157.966 219.974C157.741 220.11 157.628 220.293 157.628 220.521C157.628 220.704 157.701 220.858 157.847 220.984C157.993 221.11 158.243 221.211 158.598 221.287L159.98 221.565C160.722 221.718 161.276 221.963 161.64 222.301C162.005 222.639 162.187 223.083 162.187 223.634C162.187 224.134 162.04 224.573 161.745 224.951C161.453 225.329 161.052 225.624 160.542 225.836C160.035 226.045 159.45 226.149 158.787 226.149C157.776 226.149 156.97 225.939 156.371 225.518C155.774 225.094 155.424 224.517 155.322 223.788L157.405 223.678C157.468 223.987 157.62 224.222 157.862 224.384C158.104 224.543 158.414 224.623 158.792 224.623C159.163 224.623 159.461 224.552 159.687 224.409C159.915 224.263 160.031 224.076 160.035 223.847C160.031 223.655 159.95 223.498 159.791 223.375C159.632 223.249 159.387 223.153 159.055 223.087L157.733 222.823C156.987 222.674 156.432 222.415 156.067 222.048C155.706 221.68 155.525 221.211 155.525 220.641C155.525 220.15 155.658 219.728 155.923 219.373C156.192 219.018 156.568 218.745 157.052 218.553C157.539 218.36 158.109 218.264 158.762 218.264C159.726 218.264 160.485 218.468 161.039 218.876C161.596 219.283 161.921 219.839 162.013 220.541Z" fill="#27272A"/>
<rect x="97.5" y="204.5" width="77" height="32" rx="7.5" stroke="#D4D4D8"/>
<rect x="0.5" y="136.5" width="100" height="32" rx="7.5" fill="#F4F4F5"/>
<path d="M21.8686 151.383H19.6911C19.6513 151.101 19.5701 150.851 19.4474 150.632C19.3248 150.41 19.1674 150.221 18.9751 150.065C18.7829 149.91 18.5608 149.79 18.3089 149.707C18.0604 149.625 17.7902 149.583 17.4986 149.583C16.9716 149.583 16.5125 149.714 16.1214 149.976C15.7304 150.234 15.4271 150.612 15.2116 151.109C14.9962 151.603 14.8885 152.203 14.8885 152.909C14.8885 153.635 14.9962 154.245 15.2116 154.739C15.4304 155.232 15.7353 155.605 16.1264 155.857C16.5175 156.109 16.9699 156.235 17.4837 156.235C17.772 156.235 18.0388 156.197 18.2841 156.121C18.5327 156.045 18.7531 155.933 18.9453 155.788C19.1375 155.638 19.2966 155.458 19.4226 155.246C19.5518 155.034 19.6413 154.792 19.6911 154.52L21.8686 154.53C21.8123 154.997 21.6714 155.448 21.446 155.882C21.224 156.313 20.924 156.699 20.5462 157.04C20.1716 157.379 19.7242 157.647 19.2038 157.846C18.6868 158.041 18.1018 158.139 17.4489 158.139C16.5407 158.139 15.7287 157.934 15.0128 157.523C14.3002 157.112 13.7367 156.517 13.3224 155.738C12.9115 154.959 12.706 154.016 12.706 152.909C12.706 151.799 12.9148 150.854 13.3324 150.075C13.75 149.296 14.3168 148.703 15.0327 148.295C15.7486 147.884 16.554 147.679 17.4489 147.679C18.0388 147.679 18.5857 147.762 19.0895 147.928C19.5966 148.093 20.0457 148.335 20.4368 148.653C20.8279 148.968 21.1461 149.354 21.3913 149.812C21.6399 150.269 21.799 150.793 21.8686 151.383ZM26.8228 158.149C26.0505 158.149 25.3827 157.985 24.8192 157.657C24.2591 157.326 23.8266 156.865 23.5217 156.275C23.2167 155.682 23.0643 154.994 23.0643 154.212C23.0643 153.423 23.2167 152.733 23.5217 152.143C23.8266 151.55 24.2591 151.089 24.8192 150.761C25.3827 150.43 26.0505 150.264 26.8228 150.264C27.5951 150.264 28.2612 150.43 28.8214 150.761C29.3848 151.089 29.819 151.55 30.1239 152.143C30.4289 152.733 30.5813 153.423 30.5813 154.212C30.5813 154.994 30.4289 155.682 30.1239 156.275C29.819 156.865 29.3848 157.326 28.8214 157.657C28.2612 157.985 27.5951 158.149 26.8228 158.149ZM26.8327 156.509C27.1841 156.509 27.4774 156.409 27.7127 156.21C27.948 156.008 28.1254 155.733 28.2447 155.385C28.3673 155.037 28.4286 154.641 28.4286 154.197C28.4286 153.753 28.3673 153.357 28.2447 153.009C28.1254 152.661 27.948 152.385 27.7127 152.183C27.4774 151.981 27.1841 151.88 26.8327 151.88C26.4781 151.88 26.1798 151.981 25.9379 152.183C25.6992 152.385 25.5186 152.661 25.396 153.009C25.2766 153.357 25.217 153.753 25.217 154.197C25.217 154.641 25.2766 155.037 25.396 155.385C25.5186 155.733 25.6992 156.008 25.9379 156.21C26.1798 156.409 26.4781 156.509 26.8327 156.509ZM34.0763 153.585V158H31.9585V150.364H33.9769V151.711H34.0664C34.2354 151.267 34.5188 150.915 34.9165 150.657C35.3143 150.395 35.7965 150.264 36.3633 150.264C36.8936 150.264 37.3559 150.38 37.7504 150.612C38.1448 150.844 38.4513 151.176 38.6701 151.607C38.8888 152.034 38.9982 152.545 38.9982 153.138V158H36.8803V153.516C36.8836 153.048 36.7643 152.684 36.5224 152.422C36.2804 152.157 35.9473 152.024 35.5231 152.024C35.238 152.024 34.9862 152.085 34.7674 152.208C34.552 152.331 34.3829 152.51 34.2603 152.745C34.141 152.977 34.0797 153.257 34.0763 153.585ZM44.7292 150.364V151.955H40.1305V150.364H44.7292ZM41.1745 148.534H43.2924V155.653C43.2924 155.849 43.3223 156.001 43.3819 156.111C43.4416 156.217 43.5244 156.291 43.6305 156.335C43.7399 156.378 43.8658 156.399 44.0083 156.399C44.1078 156.399 44.2072 156.391 44.3066 156.374C44.4061 156.354 44.4823 156.339 44.5353 156.33L44.8684 157.906C44.7624 157.939 44.6132 157.977 44.421 158.02C44.2288 158.066 43.9951 158.094 43.72 158.104C43.2096 158.124 42.7621 158.056 42.3777 157.901C41.9965 157.745 41.6999 157.503 41.4877 157.175C41.2756 156.847 41.1712 156.432 41.1745 155.932V148.534ZM46.1088 158V150.364H48.1621V151.696H48.2417C48.3809 151.222 48.6145 150.864 48.9426 150.622C49.2708 150.377 49.6486 150.254 50.0762 150.254C50.1822 150.254 50.2966 150.261 50.4192 150.274C50.5418 150.287 50.6496 150.306 50.7424 150.329V152.208C50.6429 152.178 50.5054 152.152 50.3297 152.129C50.1541 152.105 49.9933 152.094 49.8475 152.094C49.5359 152.094 49.2575 152.162 49.0123 152.298C48.7703 152.43 48.5781 152.616 48.4355 152.854C48.2963 153.093 48.2267 153.368 48.2267 153.68V158H46.1088ZM54.9322 158.149C54.1599 158.149 53.4921 157.985 52.9286 157.657C52.3685 157.326 51.936 156.865 51.631 156.275C51.3261 155.682 51.1737 154.994 51.1737 154.212C51.1737 153.423 51.3261 152.733 51.631 152.143C51.936 151.55 52.3685 151.089 52.9286 150.761C53.4921 150.43 54.1599 150.264 54.9322 150.264C55.7044 150.264 56.3706 150.43 56.9308 150.761C57.4942 151.089 57.9284 151.55 58.2333 152.143C58.5382 152.733 58.6907 153.423 58.6907 154.212C58.6907 154.994 58.5382 155.682 58.2333 156.275C57.9284 156.865 57.4942 157.326 56.9308 157.657C56.3706 157.985 55.7044 158.149 54.9322 158.149ZM54.9421 156.509C55.2934 156.509 55.5868 156.409 55.8221 156.21C56.0574 156.008 56.2347 155.733 56.354 155.385C56.4767 155.037 56.538 154.641 56.538 154.197C56.538 153.753 56.4767 153.357 56.354 153.009C56.2347 152.661 56.0574 152.385 55.8221 152.183C55.5868 151.981 55.2934 151.88 54.9421 151.88C54.5875 151.88 54.2892 151.981 54.0472 152.183C53.8086 152.385 53.628 152.661 53.5053 153.009C53.386 153.357 53.3263 153.753 53.3263 154.197C53.3263 154.641 53.386 155.037 53.5053 155.385C53.628 155.733 53.8086 156.008 54.0472 156.21C54.2892 156.409 54.5875 156.509 54.9421 156.509ZM62.1857 147.818V158H60.0678V147.818H62.1857ZM66.0002 147.818V158H63.8823V147.818H66.0002ZM71.1768 158.149C70.3913 158.149 69.7152 157.99 69.1484 157.672C68.585 157.35 68.1508 156.896 67.8459 156.31C67.541 155.72 67.3885 155.022 67.3885 154.217C67.3885 153.431 67.541 152.742 67.8459 152.148C68.1508 151.555 68.58 151.093 69.1335 150.761C69.6903 150.43 70.3433 150.264 71.0923 150.264C71.5961 150.264 72.0651 150.345 72.4993 150.508C72.9368 150.667 73.3179 150.907 73.6428 151.229C73.9709 151.55 74.2261 151.955 74.4084 152.442C74.5907 152.926 74.6818 153.492 74.6818 154.142V154.724H68.2337V153.411H72.6882C72.6882 153.106 72.6219 152.836 72.4893 152.601C72.3568 152.366 72.1728 152.182 71.9375 152.049C71.7055 151.913 71.4354 151.845 71.1271 151.845C70.8056 151.845 70.5206 151.92 70.272 152.069C70.0268 152.215 69.8345 152.412 69.6953 152.661C69.5561 152.906 69.4848 153.179 69.4815 153.481V154.729C69.4815 155.107 69.5511 155.433 69.6903 155.708C69.8329 155.983 70.0334 156.195 70.2919 156.344C70.5504 156.494 70.857 156.568 71.2116 156.568C71.447 156.568 71.6624 156.535 71.858 156.469C72.0535 156.402 72.2209 156.303 72.3601 156.17C72.4993 156.038 72.6054 155.875 72.6783 155.683L74.6371 155.812C74.5376 156.283 74.3338 156.694 74.0256 157.045C73.7206 157.393 73.3262 157.665 72.8423 157.861C72.3617 158.053 71.8066 158.149 71.1768 158.149ZM76.0639 158V150.364H78.1172V151.696H78.1967C78.3359 151.222 78.5696 150.864 78.8977 150.622C79.2259 150.377 79.6037 150.254 80.0312 150.254C80.1373 150.254 80.2517 150.261 80.3743 150.274C80.4969 150.287 80.6046 150.306 80.6974 150.329V152.208C80.598 152.178 80.4605 152.152 80.2848 152.129C80.1091 152.105 79.9484 152.094 79.8026 152.094C79.491 152.094 79.2126 152.162 78.9673 152.298C78.7254 152.43 78.5331 152.616 78.3906 152.854C78.2514 153.093 78.1818 153.368 78.1818 153.68V158H76.0639ZM88.1461 152.541L86.2072 152.661C86.1741 152.495 86.1028 152.346 85.9934 152.213C85.8841 152.077 85.7399 151.969 85.5609 151.89C85.3852 151.807 85.1748 151.766 84.9295 151.766C84.6014 151.766 84.3246 151.835 84.0993 151.974C83.8739 152.11 83.7612 152.293 83.7612 152.521C83.7612 152.704 83.8341 152.858 83.9799 152.984C84.1258 153.11 84.376 153.211 84.7306 153.287L86.1127 153.565C86.8552 153.718 87.4087 153.963 87.7733 154.301C88.1378 154.639 88.3201 155.083 88.3201 155.634C88.3201 156.134 88.1726 156.573 87.8777 156.951C87.586 157.329 87.185 157.624 86.6745 157.836C86.1674 158.045 85.5824 158.149 84.9196 158.149C83.9087 158.149 83.1033 157.939 82.5034 157.518C81.9068 157.094 81.5571 156.517 81.4544 155.788L83.5375 155.678C83.6004 155.987 83.7529 156.222 83.9949 156.384C84.2368 156.543 84.5467 156.623 84.9245 156.623C85.2958 156.623 85.594 156.552 85.8194 156.409C86.0481 156.263 86.1641 156.076 86.1674 155.847C86.1641 155.655 86.0829 155.498 85.9238 155.375C85.7647 155.249 85.5195 155.153 85.188 155.087L83.8656 154.823C83.1199 154.674 82.5647 154.415 82.2001 154.048C81.8388 153.68 81.6582 153.211 81.6582 152.641C81.6582 152.15 81.7908 151.728 82.0559 151.373C82.3244 151.018 82.7006 150.745 83.1845 150.553C83.6717 150.36 84.2418 150.264 84.8947 150.264C85.8592 150.264 86.6182 150.468 87.1717 150.876C87.7285 151.283 88.0533 151.839 88.1461 152.541Z" fill="#27272A"/>
<rect x="0.5" y="136.5" width="100" height="32" rx="7.5" stroke="#D4D4D8"/>
<rect x="179.5" y="136.5" width="104" height="32" rx="7.5" fill="#F4F4F5"/>
<path d="M191.885 147.818H194.54L197.344 154.659H197.463L200.267 147.818H202.922V158H200.834V151.373H200.749L198.114 157.95H196.692L194.058 151.348H193.973V158H191.885V147.818ZM204.656 158V150.364H206.774V158H204.656ZM205.72 149.379C205.405 149.379 205.135 149.275 204.909 149.066C204.687 148.854 204.576 148.6 204.576 148.305C204.576 148.014 204.687 147.763 204.909 147.555C205.135 147.343 205.405 147.237 205.72 147.237C206.035 147.237 206.303 147.343 206.525 147.555C206.75 147.763 206.863 148.014 206.863 148.305C206.863 148.6 206.75 148.854 206.525 149.066C206.303 149.275 206.035 149.379 205.72 149.379ZM211.284 158.124C210.704 158.124 210.179 157.975 209.708 157.677C209.241 157.375 208.87 156.933 208.594 156.349C208.323 155.763 208.187 155.044 208.187 154.192C208.187 153.317 208.328 152.589 208.609 152.009C208.891 151.426 209.266 150.99 209.733 150.702C210.204 150.41 210.719 150.264 211.279 150.264C211.707 150.264 212.063 150.337 212.348 150.483C212.636 150.625 212.868 150.804 213.044 151.02C213.223 151.232 213.359 151.441 213.452 151.646H213.516V147.818H215.629V158H213.541V156.777H213.452C213.352 156.989 213.211 157.2 213.029 157.408C212.85 157.614 212.616 157.785 212.328 157.92C212.043 158.056 211.695 158.124 211.284 158.124ZM211.955 156.439C212.297 156.439 212.585 156.346 212.82 156.161C213.059 155.972 213.241 155.708 213.367 155.37C213.496 155.032 213.561 154.636 213.561 154.182C213.561 153.728 213.498 153.333 213.372 152.999C213.246 152.664 213.064 152.405 212.825 152.223C212.587 152.041 212.297 151.95 211.955 151.95C211.607 151.95 211.314 152.044 211.075 152.233C210.837 152.422 210.656 152.684 210.533 153.018C210.411 153.353 210.349 153.741 210.349 154.182C210.349 154.626 210.411 155.019 210.533 155.36C210.659 155.698 210.84 155.963 211.075 156.156C211.314 156.344 211.607 156.439 211.955 156.439ZM220.184 158.124C219.604 158.124 219.079 157.975 218.608 157.677C218.141 157.375 217.77 156.933 217.495 156.349C217.223 155.763 217.087 155.044 217.087 154.192C217.087 153.317 217.228 152.589 217.51 152.009C217.791 151.426 218.166 150.99 218.633 150.702C219.104 150.41 219.619 150.264 220.18 150.264C220.607 150.264 220.963 150.337 221.248 150.483C221.537 150.625 221.769 150.804 221.944 151.02C222.123 151.232 222.259 151.441 222.352 151.646H222.417V147.818H224.53V158H222.442V156.777H222.352C222.253 156.989 222.112 157.2 221.93 157.408C221.751 157.614 221.517 157.785 221.229 157.92C220.943 158.056 220.595 158.124 220.184 158.124ZM220.856 156.439C221.197 156.439 221.485 156.346 221.721 156.161C221.959 155.972 222.142 155.708 222.268 155.37C222.397 155.032 222.461 154.636 222.461 154.182C222.461 153.728 222.398 153.333 222.273 152.999C222.147 152.664 221.964 152.405 221.726 152.223C221.487 152.041 221.197 151.95 220.856 151.95C220.508 151.95 220.214 152.044 219.976 152.233C219.737 152.422 219.556 152.684 219.434 153.018C219.311 153.353 219.25 153.741 219.25 154.182C219.25 154.626 219.311 155.019 219.434 155.36C219.56 155.698 219.74 155.963 219.976 156.156C220.214 156.344 220.508 156.439 220.856 156.439ZM228.389 147.818V158H226.271V147.818H228.389ZM233.566 158.149C232.78 158.149 232.104 157.99 231.537 157.672C230.974 157.35 230.539 156.896 230.235 156.31C229.93 155.72 229.777 155.022 229.777 154.217C229.777 153.431 229.93 152.742 230.235 152.148C230.539 151.555 230.969 151.093 231.522 150.761C232.079 150.43 232.732 150.264 233.481 150.264C233.985 150.264 234.454 150.345 234.888 150.508C235.325 150.667 235.707 150.907 236.031 151.229C236.36 151.55 236.615 151.955 236.797 152.442C236.979 152.926 237.07 153.492 237.07 154.142V154.724H230.622V153.411H235.077C235.077 153.106 235.011 152.836 234.878 152.601C234.745 152.366 234.561 152.182 234.326 152.049C234.094 151.913 233.824 151.845 233.516 151.845C233.194 151.845 232.909 151.92 232.661 152.069C232.415 152.215 232.223 152.412 232.084 152.661C231.945 152.906 231.874 153.179 231.87 153.481V154.729C231.87 155.107 231.94 155.433 232.079 155.708C232.222 155.983 232.422 156.195 232.681 156.344C232.939 156.494 233.246 156.568 233.6 156.568C233.836 156.568 234.051 156.535 234.247 156.469C234.442 156.402 234.61 156.303 234.749 156.17C234.888 156.038 234.994 155.875 235.067 155.683L237.026 155.812C236.926 156.283 236.722 156.694 236.414 157.045C236.109 157.393 235.715 157.665 235.231 157.861C234.75 158.053 234.195 158.149 233.566 158.149ZM239.904 158L237.826 150.364H239.969L241.152 155.494H241.222L242.455 150.364H244.558L245.811 155.464H245.875L247.039 150.364H249.176L247.103 158H244.861L243.548 153.197H243.454L242.142 158H239.904ZM252.484 158.144C251.996 158.144 251.562 158.06 251.181 157.891C250.8 157.718 250.498 157.465 250.276 157.13C250.058 156.792 249.948 156.371 249.948 155.867C249.948 155.443 250.026 155.087 250.182 154.798C250.338 154.51 250.55 154.278 250.818 154.102C251.087 153.927 251.392 153.794 251.733 153.705C252.078 153.615 252.439 153.552 252.817 153.516C253.261 153.469 253.619 153.426 253.891 153.386C254.162 153.343 254.36 153.28 254.482 153.197C254.605 153.115 254.666 152.992 254.666 152.83V152.8C254.666 152.485 254.567 152.241 254.368 152.069C254.172 151.897 253.894 151.81 253.533 151.81C253.152 151.81 252.848 151.895 252.623 152.064C252.397 152.23 252.248 152.438 252.175 152.69L250.217 152.531C250.316 152.067 250.512 151.666 250.803 151.328C251.095 150.987 251.471 150.725 251.932 150.543C252.396 150.357 252.933 150.264 253.543 150.264C253.967 150.264 254.373 150.314 254.761 150.413C255.152 150.513 255.498 150.667 255.8 150.876C256.105 151.085 256.345 151.353 256.521 151.681C256.696 152.006 256.784 152.395 256.784 152.849V158H254.776V156.941H254.716C254.593 157.18 254.429 157.39 254.224 157.572C254.018 157.751 253.771 157.892 253.483 157.995C253.195 158.094 252.862 158.144 252.484 158.144ZM253.09 156.683C253.402 156.683 253.677 156.621 253.915 156.499C254.154 156.373 254.341 156.204 254.477 155.991C254.613 155.779 254.681 155.539 254.681 155.271V154.46C254.615 154.503 254.524 154.543 254.408 154.58C254.295 154.613 254.167 154.644 254.025 154.674C253.882 154.701 253.74 154.725 253.597 154.749C253.455 154.768 253.326 154.787 253.21 154.803C252.961 154.84 252.744 154.898 252.558 154.977C252.373 155.057 252.228 155.165 252.126 155.3C252.023 155.433 251.972 155.599 251.972 155.798C251.972 156.086 252.076 156.306 252.285 156.459C252.497 156.608 252.765 156.683 253.09 156.683ZM258.427 158V150.364H260.48V151.696H260.56C260.699 151.222 260.933 150.864 261.261 150.622C261.589 150.377 261.967 150.254 262.395 150.254C262.501 150.254 262.615 150.261 262.738 150.274C262.86 150.287 262.968 150.306 263.061 150.329V152.208C262.961 152.178 262.824 152.152 262.648 152.129C262.472 152.105 262.312 152.094 262.166 152.094C261.854 152.094 261.576 152.162 261.331 152.298C261.089 152.43 260.896 152.616 260.754 152.854C260.615 153.093 260.545 153.368 260.545 153.68V158H258.427ZM267.28 158.149C266.495 158.149 265.819 157.99 265.252 157.672C264.689 157.35 264.254 156.896 263.949 156.31C263.644 155.72 263.492 155.022 263.492 154.217C263.492 153.431 263.644 152.742 263.949 152.148C264.254 151.555 264.684 151.093 265.237 150.761C265.794 150.43 266.447 150.264 267.196 150.264C267.7 150.264 268.169 150.345 268.603 150.508C269.04 150.667 269.421 150.907 269.746 151.229C270.074 151.55 270.33 151.955 270.512 152.442C270.694 152.926 270.785 153.492 270.785 154.142V154.724H264.337V153.411H268.792C268.792 153.106 268.725 152.836 268.593 152.601C268.46 152.366 268.276 152.182 268.041 152.049C267.809 151.913 267.539 151.845 267.231 151.845C266.909 151.845 266.624 151.92 266.376 152.069C266.13 152.215 265.938 152.412 265.799 152.661C265.66 152.906 265.588 153.179 265.585 153.481V154.729C265.585 155.107 265.655 155.433 265.794 155.708C265.936 155.983 266.137 156.195 266.395 156.344C266.654 156.494 266.961 156.568 267.315 156.568C267.55 156.568 267.766 156.535 267.961 156.469C268.157 156.402 268.324 156.303 268.464 156.17C268.603 156.038 268.709 155.875 268.782 155.683L270.741 155.812C270.641 156.283 270.437 156.694 270.129 157.045C269.824 157.393 269.43 157.665 268.946 157.861C268.465 158.053 267.91 158.149 267.28 158.149Z" fill="#27272A"/>
<rect x="179.5" y="136.5" width="104" height="32" rx="7.5" stroke="#D4D4D8"/>
<rect x="94.5" y="68.5" width="83" height="32" rx="7.5" fill="#F4F4F5"/>
<path d="M112.408 82.7464C112.369 82.3454 112.198 82.0339 111.896 81.8118C111.595 81.5897 111.185 81.4787 110.668 81.4787C110.317 81.4787 110.02 81.5284 109.778 81.6278C109.536 81.724 109.351 81.8582 109.222 82.0305C109.096 82.2029 109.033 82.3984 109.033 82.6172C109.026 82.7995 109.064 82.9586 109.147 83.0945C109.233 83.2304 109.351 83.348 109.5 83.4474C109.649 83.5436 109.821 83.6281 110.017 83.701C110.213 83.7706 110.421 83.8303 110.643 83.88L111.558 84.0987C112.002 84.1982 112.41 84.3307 112.781 84.4964C113.152 84.6622 113.474 84.866 113.746 85.108C114.018 85.3499 114.228 85.6349 114.377 85.9631C114.53 86.2912 114.607 86.6674 114.611 87.0916C114.607 87.7147 114.448 88.255 114.134 88.7124C113.822 89.1664 113.371 89.5194 112.781 89.7713C112.195 90.0199 111.487 90.1442 110.658 90.1442C109.836 90.1442 109.121 90.0182 108.511 89.7663C107.904 89.5144 107.43 89.1416 107.089 88.6477C106.751 88.1506 106.573 87.5357 106.557 86.8033H108.64C108.663 87.1446 108.761 87.4297 108.933 87.6584C109.109 87.8838 109.343 88.0545 109.634 88.1705C109.929 88.2831 110.262 88.3395 110.634 88.3395C110.998 88.3395 111.315 88.2865 111.583 88.1804C111.855 88.0743 112.065 87.9268 112.214 87.7379C112.364 87.549 112.438 87.3319 112.438 87.0866C112.438 86.858 112.37 86.6657 112.234 86.5099C112.102 86.3542 111.906 86.2216 111.648 86.1122C111.393 86.0028 111.079 85.9034 110.708 85.8139L109.599 85.5355C108.741 85.3267 108.063 85.0002 107.566 84.5561C107.069 84.112 106.822 83.5137 106.825 82.7614C106.822 82.1449 106.986 81.6063 107.317 81.1456C107.652 80.6849 108.111 80.3253 108.695 80.0668C109.278 79.8082 109.941 79.679 110.683 79.679C111.439 79.679 112.098 79.8082 112.662 80.0668C113.229 80.3253 113.67 80.6849 113.984 81.1456C114.299 81.6063 114.462 82.1399 114.472 82.7464H112.408ZM119.499 90.1491C118.714 90.1491 118.037 89.9901 117.471 89.6719C116.907 89.3504 116.473 88.8963 116.168 88.3097C115.863 87.7197 115.711 87.022 115.711 86.2166C115.711 85.4311 115.863 84.7417 116.168 84.1484C116.473 83.5552 116.902 83.0928 117.456 82.7614C118.013 82.4299 118.666 82.2642 119.415 82.2642C119.918 82.2642 120.387 82.3454 120.822 82.5078C121.259 82.6669 121.64 82.9072 121.965 83.2287C122.293 83.5502 122.548 83.9545 122.731 84.4418C122.913 84.9257 123.004 85.4924 123.004 86.142V86.7237H116.556V85.4112H121.01C121.01 85.1063 120.944 84.8362 120.812 84.6009C120.679 84.3655 120.495 84.1816 120.26 84.049C120.028 83.9131 119.758 83.8452 119.449 83.8452C119.128 83.8452 118.843 83.9197 118.594 84.0689C118.349 84.2147 118.157 84.4119 118.018 84.6605C117.878 84.9058 117.807 85.1792 117.804 85.4808V86.7287C117.804 87.1065 117.873 87.433 118.013 87.7081C118.155 87.9832 118.356 88.1953 118.614 88.3445C118.873 88.4936 119.179 88.5682 119.534 88.5682C119.769 88.5682 119.985 88.535 120.18 88.4688C120.376 88.4025 120.543 88.303 120.682 88.1705C120.822 88.0379 120.928 87.8755 121.001 87.6832L122.959 87.8125C122.86 88.2831 122.656 88.6941 122.348 89.0455C122.043 89.3935 121.648 89.6652 121.165 89.8608C120.684 90.053 120.129 90.1491 119.499 90.1491ZM124.386 90V82.3636H126.439V83.696H126.519C126.658 83.2221 126.892 82.8641 127.22 82.6222C127.548 82.3769 127.926 82.2543 128.354 82.2543C128.46 82.2543 128.574 82.2609 128.697 82.2741C128.819 82.2874 128.927 82.3056 129.02 82.3288V84.2081C128.92 84.1783 128.783 84.1518 128.607 84.1286C128.431 84.1054 128.271 84.0938 128.125 84.0938C127.813 84.0938 127.535 84.1617 127.29 84.2976C127.048 84.4302 126.855 84.6158 126.713 84.8544C126.574 85.093 126.504 85.3681 126.504 85.6797V90H124.386ZM137.466 82.3636L134.797 90H132.41L129.741 82.3636H131.978L133.564 87.8274H133.643L135.224 82.3636H137.466ZM138.55 90V82.3636H140.668V90H138.55ZM139.614 81.3793C139.299 81.3793 139.029 81.2749 138.804 81.0661C138.582 80.8539 138.471 80.6004 138.471 80.3054C138.471 80.0137 138.582 79.7635 138.804 79.5547C139.029 79.3426 139.299 79.2365 139.614 79.2365C139.929 79.2365 140.198 79.3426 140.42 79.5547C140.645 79.7635 140.758 80.0137 140.758 80.3054C140.758 80.6004 140.645 80.8539 140.42 81.0661C140.198 81.2749 139.929 81.3793 139.614 81.3793ZM145.815 90.1491C145.033 90.1491 144.36 89.9834 143.797 89.652C143.236 89.3172 142.806 88.8532 142.504 88.2599C142.206 87.6667 142.056 86.9839 142.056 86.2116C142.056 85.4295 142.207 84.7434 142.509 84.1534C142.814 83.5601 143.246 83.0978 143.806 82.7663C144.367 82.4316 145.033 82.2642 145.805 82.2642C146.471 82.2642 147.055 82.3852 147.555 82.6271C148.056 82.8691 148.452 83.2088 148.743 83.6463C149.035 84.0838 149.196 84.5975 149.225 85.1875H147.227C147.171 84.8063 147.021 84.4998 146.779 84.2678C146.541 84.0324 146.228 83.9148 145.84 83.9148C145.512 83.9148 145.225 84.0043 144.98 84.1832C144.738 84.3589 144.549 84.6158 144.413 84.9538C144.277 85.2919 144.209 85.7012 144.209 86.1818C144.209 86.669 144.275 87.0833 144.408 87.4247C144.544 87.7661 144.734 88.0263 144.98 88.2053C145.225 88.3842 145.512 88.4737 145.84 88.4737C146.082 88.4737 146.299 88.424 146.491 88.3246C146.687 88.2251 146.847 88.081 146.973 87.892C147.103 87.6998 147.187 87.4695 147.227 87.201H149.225C149.192 87.7843 149.033 88.2981 148.748 88.7422C148.467 89.183 148.077 89.5277 147.58 89.7763C147.083 90.0249 146.494 90.1491 145.815 90.1491ZM154.062 90.1491C153.276 90.1491 152.6 89.9901 152.033 89.6719C151.47 89.3504 151.036 88.8963 150.731 88.3097C150.426 87.7197 150.273 87.022 150.273 86.2166C150.273 85.4311 150.426 84.7417 150.731 84.1484C151.036 83.5552 151.465 83.0928 152.018 82.7614C152.575 82.4299 153.228 82.2642 153.977 82.2642C154.481 82.2642 154.95 82.3454 155.384 82.5078C155.822 82.6669 156.203 82.9072 156.528 83.2287C156.856 83.5502 157.111 83.9545 157.293 84.4418C157.475 84.9257 157.567 85.4924 157.567 86.142V86.7237H151.118V85.4112H155.573C155.573 85.1063 155.507 84.8362 155.374 84.6009C155.242 84.3655 155.058 84.1816 154.822 84.049C154.59 83.9131 154.32 83.8452 154.012 83.8452C153.69 83.8452 153.405 83.9197 153.157 84.0689C152.912 84.2147 152.719 84.4119 152.58 84.6605C152.441 84.9058 152.37 85.1792 152.366 85.4808V86.7287C152.366 87.1065 152.436 87.433 152.575 87.7081C152.718 87.9832 152.918 88.1953 153.177 88.3445C153.435 88.4936 153.742 88.5682 154.096 88.5682C154.332 88.5682 154.547 88.535 154.743 88.4688C154.938 88.4025 155.106 88.303 155.245 88.1705C155.384 88.0379 155.49 87.8755 155.563 87.6832L157.522 87.8125C157.422 88.2831 157.219 88.6941 156.91 89.0455C156.605 89.3935 156.211 89.6652 155.727 89.8608C155.247 90.053 154.691 90.1491 154.062 90.1491ZM165.302 84.5412L163.363 84.6605C163.33 84.4948 163.259 84.3456 163.15 84.2131C163.04 84.0772 162.896 83.9695 162.717 83.8899C162.541 83.8071 162.331 83.7656 162.086 83.7656C161.758 83.7656 161.481 83.8352 161.256 83.9744C161.03 84.1103 160.917 84.2926 160.917 84.5213C160.917 84.7036 160.99 84.8577 161.136 84.9837C161.282 85.1096 161.532 85.2107 161.887 85.2869L163.269 85.5653C164.011 85.7178 164.565 85.9631 164.93 86.3011C165.294 86.6392 165.476 87.0833 165.476 87.6335C165.476 88.134 165.329 88.5732 165.034 88.951C164.742 89.3288 164.341 89.6238 163.831 89.8359C163.324 90.0447 162.739 90.1491 162.076 90.1491C161.065 90.1491 160.26 89.9387 159.66 89.5178C159.063 89.0935 158.713 88.5168 158.611 87.7876L160.694 87.6783C160.757 87.9865 160.909 88.2218 161.151 88.3842C161.393 88.5433 161.703 88.6229 162.081 88.6229C162.452 88.6229 162.75 88.5516 162.976 88.4091C163.204 88.2633 163.32 88.076 163.324 87.8473C163.32 87.6551 163.239 87.4976 163.08 87.375C162.921 87.2491 162.676 87.1529 162.344 87.0866L161.022 86.8232C160.276 86.674 159.721 86.4155 159.356 86.0476C158.995 85.6797 158.814 85.2107 158.814 84.6406C158.814 84.1501 158.947 83.7275 159.212 83.3729C159.481 83.0182 159.857 82.7448 160.341 82.5526C160.828 82.3603 161.398 82.2642 162.051 82.2642C163.015 82.2642 163.774 82.468 164.328 82.8757C164.885 83.2834 165.21 83.8385 165.302 84.5412Z" fill="#27272A"/>
<rect x="94.5" y="68.5" width="83" height="32" rx="7.5" stroke="#D4D4D8"/>
</svg>
